<svg width="12" height="14" viewBox="0 0 12 14" fill="none" xmlns="http://www.w3.org/2000/svg">
<path d="M3.05688 5.64591L2.20019 6.5H3.4099H10.9999C11.1325 6.5 11.2597 6.55268 11.3534 6.64645C11.4472 6.74022 11.4999 6.86739 11.4999 7C11.4999 7.13261 11.4472 7.25979 11.3534 7.35356C11.2597 7.44732 11.1325 7.5 10.9999 7.5H3.4099H2.20019L3.05688 8.35409L6.35688 11.6441L6.3578 11.645C6.40466 11.6915 6.44186 11.7468 6.46724 11.8077C6.49263 11.8686 6.50569 11.934 6.50569 12C6.50569 12.066 6.49263 12.1314 6.46724 12.1923C6.44186 12.2532 6.40466 12.3085 6.3578 12.355L6.35778 12.355L6.3549 12.3579C6.30841 12.4048 6.25311 12.442 6.19218 12.4673C6.13126 12.4927 6.06591 12.5058 5.9999 12.5058C5.93389 12.5058 5.86854 12.4927 5.80761 12.4673C5.74668 12.442 5.69138 12.4048 5.6449 12.3579L5.64345 12.3564L0.647971 7.36097C0.603933 7.31413 0.569333 7.25922 0.546081 7.19925L0.546173 7.19921L0.54239 7.19C0.492381 7.06827 0.492381 6.93173 0.54239 6.81L0.542481 6.81004L0.546081 6.80076C0.569333 6.74079 0.603933 6.68588 0.64797 6.63904L5.64345 1.64356L5.29173 1.29183L5.64345 1.64356C5.73799 1.54902 5.8662 1.49591 5.9999 1.49591C6.13359 1.49591 6.26181 1.54902 6.35634 1.64356C6.45088 1.73809 6.50399 1.86631 6.50399 2C6.50399 2.13362 6.45094 2.26177 6.3565 2.35629C6.35645 2.35634 6.3564 2.3564 6.35634 2.35645L3.05688 5.64591Z" fill="#333333" stroke="#333333"/>
</svg>
