<svg width="12" height="14" viewBox="0 0 12 14" fill="none" xmlns="http://www.w3.org/2000/svg">
<path d="M11.4538 6.80076L11.4537 6.80079L11.4575 6.81C11.5075 6.93173 11.5075 7.06827 11.4575 7.19L11.4574 7.18997L11.4538 7.19925C11.4306 7.25922 11.396 7.31413 11.3519 7.36097L6.35644 12.3564L6.355 12.3579C6.30852 12.4048 6.25321 12.442 6.19229 12.4673C6.13136 12.4927 6.06601 12.5058 6 12.5058C5.93399 12.5058 5.86864 12.4927 5.80771 12.4673C5.74679 12.442 5.69148 12.4048 5.645 12.3579L5.6421 12.355C5.59524 12.3085 5.55804 12.2532 5.53266 12.1923C5.50727 12.1314 5.4942 12.066 5.4942 12C5.4942 11.934 5.50727 11.8686 5.53266 11.8077C5.55804 11.7468 5.59524 11.6915 5.6421 11.645L5.64302 11.6441L8.94302 8.35409L9.7997 7.5H8.59H1C0.867392 7.5 0.740215 7.44732 0.646447 7.35356C0.552678 7.25979 0.5 7.13261 0.5 7C0.5 6.86739 0.552678 6.74022 0.646447 6.64645C0.740215 6.55268 0.867392 6.5 1 6.5H8.59H9.7997L8.94302 5.64591L5.64355 2.35645C5.6435 2.3564 5.64345 2.35634 5.64339 2.35629C5.54896 2.26177 5.49591 2.13362 5.49591 2C5.49591 1.9338 5.50895 1.86825 5.53428 1.80709C5.55961 1.74594 5.59674 1.69037 5.64355 1.64356C5.73809 1.54902 5.86631 1.49591 6 1.49591C6.0662 1.49591 6.13175 1.50895 6.19291 1.53428C6.25407 1.55962 6.30964 1.59675 6.35645 1.64356L6.70831 1.29169L6.35645 1.64356L11.3519 6.63903C11.396 6.68588 11.4306 6.74079 11.4538 6.80076Z" fill="#333333" stroke="#333333"/>
</svg>
