<svg width="20" height="21" viewBox="0 0 20 21" fill="none" xmlns="http://www.w3.org/2000/svg">
<path d="M7.24289 16.5L7.24289 16.5H7.24H3C2.86739 16.5 2.74021 16.4473 2.64645 16.3536C2.55268 16.2598 2.5 16.1326 2.5 16L2.50001 11.76L2.49999 11.7571C2.49961 11.6913 2.51222 11.6261 2.53711 11.5652C2.56186 11.5046 2.59826 11.4494 2.64426 11.4029C2.6445 11.4026 2.64475 11.4024 2.64499 11.4021L9.5833 4.47381L9.58418 4.47293L12.4042 1.64293L12.405 1.6421C12.4515 1.59524 12.5068 1.55804 12.5677 1.53266C12.6286 1.50727 12.694 1.4942 12.76 1.4942C12.826 1.4942 12.8914 1.50727 12.9523 1.53266C13.0131 1.55801 13.0684 1.59514 13.1148 1.64192C13.1149 1.64198 13.1149 1.64204 13.115 1.6421L17.3544 5.93147L17.3544 5.93149L17.3579 5.935C17.4048 5.98149 17.442 6.03679 17.4673 6.09771C17.4927 6.15864 17.5058 6.22399 17.5058 6.29C17.5058 6.35601 17.4927 6.42136 17.4673 6.48229C17.4421 6.54282 17.4052 6.59779 17.3588 6.64409C17.3585 6.64439 17.3582 6.6447 17.3579 6.645L14.5202 9.42269L14.5202 9.42267L14.5162 9.4267L7.59789 16.355C7.59767 16.3552 7.59744 16.3555 7.59722 16.3557C7.55064 16.4017 7.49547 16.4381 7.43484 16.4629C7.37393 16.4878 7.30869 16.5004 7.24289 16.5ZM13.1136 3.05645L12.76 2.70289L12.4064 3.05645L10.9864 4.47645L10.6329 4.83L10.9864 5.18355L13.8164 8.01355L14.17 8.36711L14.5236 8.01355L15.9436 6.59355L16.2971 6.24L15.9436 5.88645L13.1136 3.05645ZM3.64645 11.8164L3.5 11.9629V12.17V15V15.5H4H6.83H7.03711L7.18355 15.3536L13.1136 9.42355L13.4671 9.07L13.1136 8.71645L10.2836 5.88645L9.93 5.53289L9.57645 5.88645L3.64645 11.8164ZM1 19.5H19C19.1326 19.5 19.2598 19.5527 19.3536 19.6464C19.4473 19.7402 19.5 19.8674 19.5 20C19.5 20.1326 19.4473 20.2598 19.3536 20.3536C19.2598 20.4473 19.1326 20.5 19 20.5H1C0.867391 20.5 0.740214 20.4473 0.646446 20.3536C0.552679 20.2598 0.5 20.1326 0.5 20C0.5 19.8674 0.552679 19.7402 0.646446 19.6464C0.740214 19.5527 0.867391 19.5 1 19.5Z" fill="#333333" stroke="#333333"/>
</svg>
