<svg width="20" height="20" viewBox="0 0 20 20" fill="none" xmlns="http://www.w3.org/2000/svg">
<path d="M10.3333 9.16663V9.66663H10.8333H13.3333C13.4217 9.66663 13.5065 9.70175 13.569 9.76426C13.6315 9.82677 13.6667 9.91155 13.6667 9.99996C13.6667 10.0884 13.6315 10.1732 13.569 10.2357C13.5065 10.2982 13.4217 10.3333 13.3333 10.3333H10.8333H10.3333V10.8333V13.3333C10.3333 13.4217 10.2982 13.5065 10.2357 13.569C10.1732 13.6315 10.0884 13.6666 9.99999 13.6666C9.91159 13.6666 9.8268 13.6315 9.76429 13.569C9.70178 13.5065 9.66666 13.4217 9.66666 13.3333V10.8333V10.3333H9.16666H6.66666C6.57825 10.3333 6.49347 10.2982 6.43096 10.2357C6.36845 10.1732 6.33333 10.0884 6.33333 9.99996C6.33333 9.91155 6.36845 9.82677 6.43096 9.76426C6.49347 9.70175 6.57826 9.66663 6.66666 9.66663H9.16666H9.66666V9.16663V6.66663C9.66666 6.57822 9.70178 6.49344 9.76429 6.43092C9.8268 6.36841 9.91159 6.33329 9.99999 6.33329C10.0884 6.33329 10.1732 6.36841 10.2357 6.43092C10.2982 6.49344 10.3333 6.57822 10.3333 6.66663V9.16663ZM5.64803 3.48678C6.93621 2.62604 8.45071 2.16663 9.99999 2.16663C11.0287 2.16663 12.0473 2.36924 12.9977 2.7629C13.9481 3.15656 14.8116 3.73356 15.539 4.46096C16.2664 5.18835 16.8434 6.05189 17.2371 7.00227C17.6307 7.95266 17.8333 8.97127 17.8333 9.99996C17.8333 11.5492 17.3739 13.0637 16.5132 14.3519C15.6524 15.6401 14.429 16.6441 12.9977 17.237C11.5663 17.8299 9.9913 17.985 8.47179 17.6828C6.95227 17.3805 5.5565 16.6345 4.46099 15.539C3.36548 14.4435 2.61943 13.0477 2.31718 11.5282C2.01492 10.0086 2.17005 8.43363 2.76294 7.00227C3.35582 5.57092 4.35984 4.34752 5.64803 3.48678ZM6.01841 15.9588C7.19696 16.7463 8.58256 17.1666 9.99999 17.1666C11.9007 17.1666 13.7236 16.4116 15.0676 15.0676C16.4116 13.7235 17.1667 11.9007 17.1667 9.99996C17.1667 8.58253 16.7463 7.19693 15.9589 6.01837C15.1714 4.83982 14.0521 3.92125 12.7426 3.37882C11.433 2.8364 9.99204 2.69447 8.60185 2.971C7.21165 3.24753 5.93467 3.93008 4.93239 4.93236C3.93012 5.93464 3.24756 7.21162 2.97103 8.60181C2.69451 9.99201 2.83643 11.433 3.37886 12.7425C3.92128 14.0521 4.83985 15.1713 6.01841 15.9588Z" fill="#333333" stroke="#333333"/>
</svg>
